<?xml version="1.0" encoding="UTF-8" standalone="no"?>
<svg
   xmlns:dc="http://purl.org/dc/elements/1.1/"
   xmlns:cc="http://creativecommons.org/ns#"
   xmlns:rdf="http://www.w3.org/1999/02/22-rdf-syntax-ns#"
   xmlns:svg="http://www.w3.org/2000/svg"
   xmlns="http://www.w3.org/2000/svg"
   xmlns:sodipodi="http://sodipodi.sourceforge.net/DTD/sodipodi-0.dtd"
   xmlns:inkscape="http://www.inkscape.org/namespaces/inkscape"
   width="92.05"
   height="32"
   viewBox="0 0 512 178"
   version="1.1"
   id="svg14"
   sodipodi:docname="google2.svg"
   inkscape:version="1.0.1 (3bc2e813f5, 2020-09-07)">
  <metadata
     id="metadata20">
    <rdf:RDF>
      <cc:Work
         rdf:about="">
        <dc:format>image/svg+xml</dc:format>
        <dc:type
           rdf:resource="http://purl.org/dc/dcmitype/StillImage" />
      </cc:Work>
    </rdf:RDF>
  </metadata>
  <defs
     id="defs18">
    <filter
       inkscape:label="In and Out"
       inkscape:menu="Shadows and Glows"
       inkscape:menu-tooltip="Inner colorized shadow, outer black shadow"
       style="color-interpolation-filters:sRGB;"
       id="filter851">
      <feGaussianBlur
         result="result0"
         in="SourceAlpha"
         stdDeviation="1"
         id="feGaussianBlur845" />
      <feOffset
         dx="0"
         dy="3"
         result="result4"
         id="feOffset847" />
      <feComposite
         in="SourceGraphic"
         in2="result4"
         operator="xor"
         result="result3"
         id="feComposite849" />
    </filter>
  </defs>
  <sodipodi:namedview
     pagecolor="#ffffff"
     bordercolor="#666666"
     borderopacity="1"
     objecttolerance="10"
     gridtolerance="10"
     guidetolerance="10"
     inkscape:pageopacity="0"
     inkscape:pageshadow="2"
     inkscape:window-width="1600"
     inkscape:window-height="837"
     id="namedview16"
     showgrid="false"
     inkscape:zoom="5.38"
     inkscape:cx="46.025002"
     inkscape:cy="22.940622"
     inkscape:window-x="-8"
     inkscape:window-y="-8"
     inkscape:window-maximized="1"
     inkscape:current-layer="svg14"
     inkscape:document-rotation="0" />
  <path
     style="fill:#4285f5;fill-opacity:1;stroke:#424bf5;stroke-width:2.11028;stroke-linecap:round;stroke-opacity:1;paint-order:markers stroke fill"
     d="M 68.693498,127.27988 C 58.924095,124.40947 54.935437,122.41315 48.371662,117.10888 40.438561,110.69802 36.152516,105.23084 31.693779,95.834961 22.711842,76.90732 24.730695,58.024661 37.71545,39.513628 42.097934,33.265955 51.308863,25.421373 58.674224,21.663845 68.995815,16.39816 85.955602,14.499181 96.654688,17.41118 c 9.988912,2.718713 24.268192,10.898176 24.268192,13.901314 0,0.565343 -2.09652,3.246832 -4.65893,5.95886 -4.33076,4.583627 -4.79527,4.815042 -6.59461,3.285255 C 94.510358,27.668527 70.061761,28.498443 55.839442,42.38388 c -20.709856,20.219281 -15.664725,55.244945 9.686479,67.24818 9.202938,4.35738 16.190038,5.47624 24.563407,3.93338 16.505672,-3.04129 27.622562,-12.87989 29.426782,-26.043086 l 0.63847,-4.658137 h -17.90492 c -9.847712,0 -18.102774,-0.196007 -18.344576,-0.43556 -0.241802,-0.239567 -0.280424,-3.563256 -0.08586,-7.385981 l 0.35382,-6.950398 h 25.760866 25.76087 v 9.929804 c 0,16.240236 -4.40955,27.158838 -15.02151,37.195198 -13.27057,12.55075 -33.969735,17.35427 -51.979805,12.0626 z"
     id="path36" />
  <path
     style="fill:#ea4335;fill-opacity:1;stroke:#c74330;stroke-width:2.11028;stroke-linecap:round;stroke-opacity:1;paint-order:markers stroke fill"
     d="m 171.74122,127.7839 c -16.70011,-4.63473 -26.55771,-17.92667 -26.50143,-35.734366 0.017,-5.410405 0.68072,-8.631242 2.67658,-12.990796 3.89704,-8.512256 6.2804,-11.404773 13.21012,-16.032273 14.52921,-9.702232 33.58975,-7.894024 45.82373,4.347152 7.36528,7.36961 9.53727,13.148414 9.58967,25.514419 0.0418,9.852394 -0.17769,10.976844 -3.31265,16.973654 -7.87779,15.06922 -25.04426,22.48524 -41.48602,17.92221 z m 20.82279,-16.06747 c 8.58795,-6.91105 11.35121,-15.50845 8.32752,-25.909589 -2.40435,-8.270701 -11.35046,-15.618431 -18.99156,-15.598404 -7.10158,0.01865 -15.89449,5.348805 -19.12311,11.592264 -2.23751,4.32689 -3.00576,12.677028 -1.63475,17.768515 1.3868,5.150184 6.88478,11.756404 11.92463,14.328294 5.5051,2.80932 14.55387,1.79707 19.49727,-2.18108 z"
     id="path38" />
  <path
     style="fill:#fcbc05;fill-opacity:1;stroke:#fca005;stroke-width:2.11028;stroke-linecap:round;stroke-opacity:1;paint-order:markers stroke fill"
     d="M 253.01935,127.63917 C 231.58618,121.0397 221.3911,95.586945 232.14492,75.524626 c 11.25207,-20.991861 39.1807,-25.181441 57.19182,-8.579366 10.53917,9.714672 13.81582,27.317588 7.63597,41.02227 -7.43178,16.48105 -26.54041,25.03326 -43.95336,19.67164 z m 15.13738,-12.73715 c 5.01344,-0.82881 12.12599,-6.87192 14.66364,-12.45884 3.66647,-8.072143 2.19209,-17.552908 -3.82239,-24.579496 -8.97637,-10.486869 -24.72739,-9.207063 -32.22693,2.618493 -2.66366,4.200144 -3.11097,5.943799 -3.11097,12.126905 0,10.639948 4.24353,17.611138 13.05443,21.445598 3.72628,1.62166 5.82033,1.77673 11.44222,0.84734 z"
     id="path40" />
  <path
     style="fill:#4285f5;fill-opacity:1;stroke:#4269f5;stroke-width:2.11028;stroke-linecap:round;stroke-opacity:1;paint-order:markers stroke fill"
     d="m 333.73255,160.00095 c -3.07285,-1.06137 -7.34617,-3.33541 -9.49625,-5.05346 -4.60791,-3.68195 -11.20126,-12.99587 -10.01305,-14.14468 0.45547,-0.44037 3.33149,-1.7448 6.39118,-2.89875 l 5.56307,-2.09808 5.55042,5.55043 c 6.1195,6.11948 10.16234,7.54046 18.0767,6.35363 6.6083,-0.99096 11.762,-5.61215 13.75921,-12.33749 1.48589,-5.00354 2.20813,-13.46819 1.14917,-13.46819 -0.25161,0 -2.94428,1.54313 -5.98371,3.4292 -5.081,3.15291 -6.21306,3.4239 -14.0507,3.36347 -8.8161,-0.068 -13.51236,-1.67611 -20.94712,-7.17287 -4.20403,-3.10817 -10.07663,-12.3279 -12.02411,-18.87737 -4.55084,-15.304676 3.69043,-34.260919 18.33921,-42.183124 9.45546,-5.113599 23.24595,-4.739505 30.54616,0.828632 4.2122,3.212807 4.57773,3.20815 4.57773,-0.05844 0,-2.562476 0.21102,-2.637852 7.38597,-2.637852 h 7.38597 v 35.402649 c 0,28.268235 -0.33149,36.860115 -1.64495,42.634945 -1.7294,7.60358 -6.09924,14.94062 -11.36573,19.08324 -7.8856,6.20283 -22.27017,8.05903 -33.19917,4.28411 z m 23.09612,-48.06089 c 5.08963,-3.36816 9.37112,-11.61161 9.38662,-18.072706 0.0428,-17.84253 -15.96683,-28.441343 -30.23224,-20.014555 -8.72067,5.15143 -12.63878,20.199168 -7.67222,29.465681 6.14588,11.46687 18.5511,15.21725 28.51784,8.62158 z"
     id="path42" />
  <path
     style="fill:#36a955;fill-opacity:1;stroke:#368155;stroke-width:2.11028;stroke-linecap:round;stroke-opacity:1;paint-order:markers stroke fill"
     d="M 393.83306,73.895534 V 20.611028 h 7.91354 7.91354 v 53.284506 53.284506 h -7.91354 -7.91354 z"
     id="path44" />
  <path
     style="fill:#ea4335;fill-opacity:1;stroke:#c64335;stroke-width:2.11028;stroke-linecap:round;stroke-opacity:1;paint-order:markers stroke fill"
     d="m 446.7103,127.91638 c -12.05167,-3.40886 -19.9034,-11.17939 -24.2425,-23.99179 -5.71289,-16.868879 2.93926,-37.403648 18.77148,-44.55168 6.83317,-3.085085 18.90486,-3.128944 25.57083,-0.09291 6.19043,2.819465 12.97048,9.519905 16.3185,16.126922 3.54278,6.991315 3.39319,8.177361 -1.28278,10.171729 -2.17622,0.928183 -12.50339,5.251648 -22.94926,9.607707 -10.44588,4.356041 -19.39304,8.300582 -19.88257,8.765622 -1.51314,1.43742 6.59573,9.38462 10.75399,10.53961 8.46102,2.3501 15.32433,0.66491 20.76386,-5.0983 1.7214,-1.82381 3.49297,-3.31601 3.93685,-3.31601 1.2455,0 11.29353,6.76056 11.31494,7.61298 0.0105,0.41502 -2.23639,2.91721 -4.99294,5.56042 -8.44763,8.10028 -22.99868,11.80021 -34.0804,8.6657 z m 5.97352,-42.766738 c 16.53398,-6.94548 17.73494,-8.386883 10.4333,-12.522103 -10.06759,-5.701688 -22.50017,-0.0074 -26.72421,12.240618 -1.6166,4.687406 -1.56222,6.437165 0.20005,6.437165 0.79036,0 8.03125,-2.770057 16.09086,-6.15568 z"
     id="path46" />
  <path
     style="fill:#ffffff;fill-opacity:1;stroke:#ea4335;stroke-width:2.11028;stroke-linecap:round;stroke-opacity:1;paint-order:markers stroke fill;filter:url(#filter851)"
     d="m 446.7103,127.91638 c -12.05167,-3.40886 -19.9034,-11.17939 -24.2425,-23.99179 -5.71289,-16.868878 2.93926,-37.403644 18.77148,-44.551676 6.83317,-3.085085 18.90486,-3.128944 25.57083,-0.09291 6.19043,2.819465 12.97048,9.519905 16.3185,16.126918 3.54278,6.99132 3.39319,8.17737 -1.28278,10.17173 -2.17622,0.92819 -12.50339,5.25165 -22.94926,9.60771 -10.44588,4.35604 -19.39304,8.300578 -19.88257,8.765618 -1.51314,1.43742 6.59573,9.38462 10.75399,10.53961 8.46102,2.3501 15.32433,0.66491 20.76386,-5.0983 1.7214,-1.82381 3.49297,-3.31601 3.93685,-3.31601 1.2455,0 11.29353,6.76056 11.31494,7.61298 0.0105,0.41502 -2.23639,2.91721 -4.99294,5.56042 -8.44763,8.10028 -22.99868,11.80021 -34.0804,8.6657 z m 5.97352,-42.766738 c 16.53398,-6.94548 17.73494,-8.38688 10.4333,-12.5221 -10.06759,-5.701687 -22.50017,-0.007 -26.72421,12.24062 -1.6166,4.68741 -1.56222,6.43716 0.20005,6.43716 0.79036,0 8.03125,-2.77005 16.09086,-6.15568 z"
     id="path20" />
  <path
     style="fill:#ffffff;fill-opacity:1;stroke:#368155;stroke-width:2.11028;stroke-linecap:round;stroke-opacity:1;paint-order:markers stroke fill;filter:url(#filter851)"
     d="M 393.83306,73.895534 V 20.611028 h 7.91354 7.91354 v 53.284506 53.284506 h -7.91354 -7.91354 z"
     id="path853" />
  <path
     style="fill:#ffffff;fill-opacity:1;stroke:#4269f5;stroke-width:2.11028;stroke-linecap:round;stroke-opacity:1;paint-order:markers stroke fill;filter:url(#filter851)"
     d="m 333.73255,160.00095 c -3.07285,-1.06137 -7.34617,-3.33541 -9.49625,-5.05346 -4.60791,-3.68195 -11.20126,-12.99587 -10.01305,-14.14468 0.45547,-0.44037 3.33149,-1.7448 6.39118,-2.89875 l 5.56307,-2.09808 5.55042,5.55043 c 6.1195,6.11948 10.16234,7.54046 18.0767,6.35363 6.6083,-0.99096 11.762,-5.61215 13.75921,-12.33749 1.48589,-5.00354 2.20813,-13.46819 1.14917,-13.46819 -0.25161,0 -2.94428,1.54313 -5.98371,3.4292 -5.081,3.15291 -6.21306,3.4239 -14.0507,3.36347 -8.8161,-0.068 -13.51236,-1.67611 -20.94712,-7.17287 -4.20403,-3.10817 -10.07663,-12.3279 -12.02411,-18.87737 -4.55084,-15.304676 3.69043,-34.260919 18.33921,-42.183124 9.45546,-5.113599 23.24595,-4.739505 30.54616,0.828632 4.2122,3.212807 4.57773,3.20815 4.57773,-0.05844 0,-2.562476 0.21102,-2.637852 7.38597,-2.637852 h 7.38597 v 35.402649 c 0,28.268235 -0.33149,36.860115 -1.64495,42.634945 -1.7294,7.60358 -6.09924,14.94062 -11.36573,19.08324 -7.8856,6.20283 -22.27017,8.05903 -33.19917,4.28411 z m 23.09612,-48.06089 c 5.08963,-3.36816 9.37112,-11.61161 9.38662,-18.072706 0.0428,-17.84253 -15.96683,-28.441343 -30.23224,-20.014555 -8.72067,5.15143 -12.63878,20.199168 -7.67222,29.465681 6.14588,11.46687 18.5511,15.21725 28.51784,8.62158 z"
     id="path855" />
  <path
     style="fill:#ffffff;fill-opacity:1;stroke:#fca005;stroke-width:2.11028;stroke-linecap:round;stroke-opacity:1;paint-order:markers stroke fill;filter:url(#filter851)"
     d="M 253.01935,127.63917 C 231.58618,121.0397 221.3911,95.586945 232.14492,75.524626 c 11.25207,-20.991861 39.1807,-25.181441 57.19182,-8.579366 10.53917,9.714672 13.81582,27.317588 7.63597,41.02227 -7.43178,16.48105 -26.54041,25.03326 -43.95336,19.67164 z m 15.13738,-12.73715 c 5.01344,-0.82881 12.12599,-6.87192 14.66364,-12.45884 3.66647,-8.072143 2.19209,-17.552908 -3.82239,-24.579496 -8.97637,-10.486869 -24.72739,-9.207063 -32.22693,2.618493 -2.66366,4.200144 -3.11097,5.943799 -3.11097,12.126905 0,10.639948 4.24353,17.611138 13.05443,21.445598 3.72628,1.62166 5.82033,1.77673 11.44222,0.84734 z"
     id="path857" />
  <path
     style="fill:#ffffff;fill-opacity:1;stroke:#c74330;stroke-width:2.11028;stroke-linecap:round;stroke-opacity:1;paint-order:markers stroke fill;filter:url(#filter851)"
     d="m 171.74122,127.7839 c -16.70011,-4.63473 -26.55771,-17.92667 -26.50143,-35.734366 0.017,-5.410405 0.68072,-8.631242 2.67658,-12.990796 3.89704,-8.512256 6.2804,-11.404773 13.21012,-16.032273 14.52921,-9.702232 33.58975,-7.894024 45.82373,4.347152 7.36528,7.36961 9.53727,13.148414 9.58967,25.514419 0.0418,9.852394 -0.17769,10.976844 -3.31265,16.973654 -7.87779,15.06922 -25.04426,22.48524 -41.48602,17.92221 z m 20.82279,-16.06747 c 8.58795,-6.91105 11.35121,-15.50845 8.32752,-25.909589 -2.40435,-8.270701 -11.35046,-15.618431 -18.99156,-15.598404 -7.10158,0.01865 -15.89449,5.348805 -19.12311,11.592264 -2.23751,4.32689 -3.00576,12.677028 -1.63475,17.768515 1.3868,5.150184 6.88478,11.756404 11.92463,14.328294 5.5051,2.80932 14.55387,1.79707 19.49727,-2.18108 z"
     id="path859" />
  <path
     style="fill:#ffffff;fill-opacity:1;stroke:#424bf5;stroke-width:2.11028;stroke-linecap:round;stroke-opacity:1;paint-order:markers stroke fill;filter:url(#filter851)"
     d="M 68.693498,127.27988 C 58.924095,124.40947 54.935437,122.41315 48.371662,117.10888 40.438561,110.69802 36.152516,105.23084 31.693779,95.834961 22.711842,76.90732 24.730695,58.024661 37.71545,39.513628 42.097934,33.265955 51.308863,25.421373 58.674224,21.663845 68.995815,16.39816 85.955602,14.499181 96.654688,17.41118 c 9.988912,2.718713 24.268192,10.898176 24.268192,13.901314 0,0.565343 -2.09652,3.246832 -4.65893,5.95886 -4.33076,4.583627 -4.79527,4.815042 -6.59461,3.285255 C 94.510358,27.668527 70.061761,28.498443 55.839442,42.38388 c -20.709856,20.219281 -15.664725,55.244945 9.686479,67.24818 9.202938,4.35738 16.190038,5.47624 24.563407,3.93338 16.505672,-3.04129 27.622562,-12.87989 29.426782,-26.043086 l 0.63847,-4.658137 h -17.90492 c -9.847712,0 -18.102774,-0.196007 -18.344576,-0.43556 -0.241802,-0.239567 -0.280424,-3.563256 -0.08586,-7.385981 l 0.35382,-6.950398 h 25.760866 25.76087 v 9.929804 c 0,16.240236 -4.40955,27.158838 -15.02151,37.195198 -13.27057,12.55075 -33.969735,17.35427 -51.979805,12.0626 z"
     id="path861" />
</svg>
